<svg id="logo" xmlns="http://www.w3.org/2000/svg" viewBox="0 0 300 100"><defs><style>.cls-1{fill:#333;}</style></defs><title>logo</title><path class="cls-1" d="M0,0V100H300V0ZM293.1,93.1H6.9V6.9H293.1Z"/><path class="cls-1" d="M44,54.5h7q5.75,0,8.95-2.75a9.55,9.55,0,0,0,3.2-7.65,9.8,9.8,0,0,0-3.2-7.82q-3.2-2.77-8.95-2.78H37.05v33H44ZM44,39h5.9a7.27,7.27,0,0,1,4.7,1.25,4.66,4.66,0,0,1,1.5,3.8,4.74,4.74,0,0,1-1.5,3.82,7.17,7.17,0,0,1-4.7,1.27H44Z"/><path class="cls-1" d="M78.6,53.85h6.2L92.55,66.5h7.75L91.6,53.1a9.64,9.64,0,0,0,5-3.45,9.83,9.83,0,0,0,1.75-5.95,9.3,9.3,0,0,0-3.17-7.52Q92,33.5,86.35,33.5H71.8v33h6.8ZM78.6,39h6.85a6.89,6.89,0,0,1,4.43,1.18A4.43,4.43,0,0,1,91.3,43.8a4.43,4.43,0,0,1-1.43,3.63,6.88,6.88,0,0,1-4.43,1.18H78.6Z"/><path class="cls-1" d="M117.77,58.45h12.7l2.75,8.05h7.15l-12-33h-8.25L108,66.5h7.05Zm4.9-14.5,1.4-4.9h.1l1.5,5,3.1,9.3h-9.3Z"/><polygon class="cls-1" points="173.81 60.95 156.41 60.95 156.41 33.5 149.51 33.5 149.51 66.5 173.81 66.5 173.81 60.95"/><polygon class="cls-1" points="207.61 60.95 190.21 60.95 190.21 33.5 183.31 33.5 183.31 66.5 207.61 66.5 207.61 60.95"/><rect class="cls-1" x="218.11" y="33.5" width="6.9" height="33"/><polygon class="cls-1" points="262.95 60.95 244.4 60.95 244.4 52.55 258.45 52.55 258.45 47.25 244.4 47.25 244.4 39.05 262.25 39.05 262.25 33.5 237.5 33.5 237.5 66.5 262.95 66.5 262.95 60.95"/></svg>